<svg xmlns="http://www.w3.org/2000/svg" width="960" height="440" viewBox="0 0 960 440">
<style>text{font-family:Arial,Helvetica,sans-serif;fill:#1f2933}.muted{fill:#607080}.grid{stroke:#d7dde3;stroke-width:1}.axis{stroke:#8b98a5;stroke-width:1.2}</style>
<rect width="960" height="440" fill="#ffffff"/>
<text x="24" y="34" font-size="24" font-weight="700">Reward Distribution</text>
<text x="24" y="59" font-size="14" class="muted">How many tasks landed in each reward range.</text>
<line x1="68" y1="382.0" x2="936" y2="382.0" class="grid"/>
<text x="58" y="386.0" text-anchor="end" font-size="12" class="muted">0</text>
<line x1="68" y1="304.5" x2="936" y2="304.5" class="grid"/>
<text x="58" y="308.5" text-anchor="end" font-size="12" class="muted">94</text>
<line x1="68" y1="227.0" x2="936" y2="227.0" class="grid"/>
<text x="58" y="231.0" text-anchor="end" font-size="12" class="muted">187</text>
<line x1="68" y1="149.5" x2="936" y2="149.5" class="grid"/>
<text x="58" y="153.5" text-anchor="end" font-size="12" class="muted">280</text>
<line x1="68" y1="72.0" x2="936" y2="72.0" class="grid"/>
<text x="58" y="76.0" text-anchor="end" font-size="12" class="muted">374</text>
<line x1="68" y1="382" x2="936" y2="382" class="axis"/>
<rect x="68.0" y="372.1" width="79.6" height="9.9" rx="3" fill="#2f6f73"/>
<text x="107.8" y="365.1" text-anchor="middle" font-size="12">12</text>
<text x="107.8" y="404" text-anchor="middle" font-size="12" class="muted">0.0-0.1</text>
<rect x="155.6" y="382.0" width="79.6" height="0.0" rx="3" fill="#b64f35"/>
<text x="195.4" y="375.0" text-anchor="middle" font-size="12">0</text>
<text x="195.4" y="404" text-anchor="middle" font-size="12" class="muted">0.1-0.2</text>
<rect x="243.2" y="382.0" width="79.6" height="0.0" rx="3" fill="#6f5aa8"/>
<text x="283.0" y="375.0" text-anchor="middle" font-size="12">0</text>
<text x="283.0" y="404" text-anchor="middle" font-size="12" class="muted">0.2-0.3</text>
<rect x="330.8" y="359.6" width="79.6" height="22.4" rx="3" fill="#9a6b16"/>
<text x="370.6" y="352.6" text-anchor="middle" font-size="12">27</text>
<text x="370.6" y="404" text-anchor="middle" font-size="12" class="muted">0.3-0.4</text>
<rect x="418.4" y="353.0" width="79.6" height="29.0" rx="3" fill="#2f5f9f"/>
<text x="458.2" y="346.0" text-anchor="middle" font-size="12">35</text>
<text x="458.2" y="404" text-anchor="middle" font-size="12" class="muted">0.4-0.5</text>
<rect x="506.0" y="369.6" width="79.6" height="12.4" rx="3" fill="#4f7d3a"/>
<text x="545.8" y="362.6" text-anchor="middle" font-size="12">15</text>
<text x="545.8" y="404" text-anchor="middle" font-size="12" class="muted">0.5-0.6</text>
<rect x="593.6" y="308.2" width="79.6" height="73.8" rx="3" fill="#9b3f6d"/>
<text x="633.4" y="301.2" text-anchor="middle" font-size="12">89</text>
<text x="633.4" y="404" text-anchor="middle" font-size="12" class="muted">0.6-0.7</text>
<rect x="681.2" y="72.0" width="79.6" height="310.0" rx="3" fill="#5f6b2f"/>
<text x="721.0" y="65.0" text-anchor="middle" font-size="12">374</text>
<text x="721.0" y="404" text-anchor="middle" font-size="12" class="muted">0.7-0.8</text>
<rect x="768.8" y="113.4" width="79.6" height="268.6" rx="3" fill="#316d9b"/>
<text x="808.6" y="106.4" text-anchor="middle" font-size="12">324</text>
<text x="808.6" y="404" text-anchor="middle" font-size="12" class="muted">0.8-0.9</text>
<rect x="856.4" y="238.6" width="79.6" height="143.4" rx="3" fill="#8a4c2f"/>
<text x="896.2" y="231.6" text-anchor="middle" font-size="12">173</text>
<text x="896.2" y="404" text-anchor="middle" font-size="12" class="muted">0.9-1.0</text>
<text x="502.0" y="432" text-anchor="middle" font-size="12" class="muted">Reward range</text>
</svg>